<?xml version="1.0" encoding="iso-8859-1"?>
<!-- Uploaded to: SVG Repo, www.svgrepo.com, Generator: SVG Repo Mixer Tools -->
<svg height="800px" width="800px" version="1.1" id="Layer_1" xmlns="http://www.w3.org/2000/svg" xmlns:xlink="http://www.w3.org/1999/xlink" 
	 viewBox="0 0 474.649 474.649" xml:space="preserve">
<circle style="fill:#ED7826;" cx="236.967" cy="236.985" r="236.967"/>
<path style="fill:#DB6D27;" d="M405.239,70.083c92.542,92.546,92.549,242.588,0,335.141c-92.542,92.542-242.599,92.546-335.144,0
	L405.239,70.083z"/>
<path style="fill:#CE6028;" d="M465.576,299.447L295.571,129.45l-34.634,34.638l-95.049-13.358l19.592,88.811l-68.306,68.306
	l24.011,24.011l-5.923,5.923l133.93,133.934C363.971,458.828,440.895,389.938,465.576,299.447z"/>
<path style="fill:#FFFFFF;" d="M286.12,362.458c44.363,0,80.4-36.138,80.651-80.258l0.498-64.961l-0.745-3.536l-2.129-4.445
	l-3.607-2.791c-4.681-3.667-28.404,0.247-34.791-5.549c-4.528-4.138-5.235-11.618-6.612-21.751
	c-2.548-19.629-4.15-20.655-7.229-27.304c-11.169-23.633-41.474-41.392-62.293-43.843h-56.396c-44.37,0-80.643,36.194-80.643,80.396
	v93.784c0,44.119,36.269,80.258,80.643,80.258H286.12z M194.494,173.696h44.707c8.539,0,15.454,6.93,15.454,15.353
	c0,8.389-6.915,15.379-15.454,15.379h-44.707c-8.535,0-15.439-6.99-15.439-15.379C179.056,180.626,185.959,173.696,194.494,173.696z
	 M179.056,281.007c0-8.419,6.904-15.293,15.439-15.293h90.847c8.483,0,15.368,6.874,15.368,15.293
	c0,8.314-6.889,15.296-15.368,15.296h-90.847C185.959,296.303,179.056,289.321,179.056,281.007z"/>
</svg>