<svg version="1.2" xmlns="http://www.w3.org/2000/svg" viewBox="0 0 90 90" width="90" height="90">
	<title>w3-svg</title>
	<defs>
		<clipPath clipPathUnits="userSpaceOnUse" id="cp1">
			<path d="m17.95 20h54.09v50.79h-54.09z"/>
		</clipPath>
	</defs>
	<style>
		.s0 { fill: #04aa6d } 
	</style>
	<g id="Clip-Path" clip-path="url(#cp1)">
		<g>
			<path class="s0" d="m63.5 30.7c0 0 1.4 1.4 3.3 1.4 1.5 0 2.6-0.9 2.6-2.1 0-1.5-1.4-2.2-3.1-2.2h-1l-0.6-1.4 2.6-3.1c0.6-0.7 1.1-1.1 1.1-1.1q0 0-1.3 0h-4.3v-2.2h8.8v1.6l-3.5 4.1c2 0.3 3.9 1.7 3.9 4.2 0 2.5-1.9 4.7-5.1 4.7-3 0-4.7-1.9-4.7-1.9z"/>
			<path class="s0" d="m46.4 33.7l11.6 20.7 5.7-10.2-10.9-19.5h-12.8l-5.3 9.4-5.2-9.4h-11.5l16.7 29.7v-0.1l0.1 0.1z"/>
			<path class="s0" d="m18.1 68.4h1.7c0 0.5 0.4 0.9 1.2 0.9 0.7 0 1.2-0.3 1.2-0.8 0-0.4-0.3-0.6-0.9-0.7l-0.9-0.3c-1.7-0.4-2.1-1.3-2.1-2.2 0-1.1 1.1-2.2 2.7-2.2 1.3 0 2.8 0.7 2.8 2.3h-1.8c0-0.5-0.4-0.8-0.9-0.8-0.6 0-1 0.3-1 0.8 0 0.4 0.4 0.6 0.8 0.7l1.2 0.3c1.6 0.4 1.9 1.4 1.9 2.1 0 1.5-1.5 2.3-3 2.3-1.4 0-2.8-0.9-2.9-2.4z"/>
			<path class="s0" d="m25.5 67c0-2.4 1.9-3.9 4-3.9 1.2 0 2.3 0.6 2.9 1.4l-1.2 1.1c-0.4-0.5-1-0.8-1.7-0.8-1.3 0-2.2 0.9-2.2 2.2 0 1.2 0.9 2.1 2.2 2.1 0.7 0 1.3-0.3 1.7-0.7l1.2 1c-0.6 0.8-1.7 1.4-2.9 1.4-2.1 0-4-1.5-4-3.8z"/>
			<path class="s0" d="m41.2 66.5v4.1h-1.9v-4c0-1.1-0.7-1.7-1.5-1.7-0.8 0-1.8 0.4-1.8 1.9v3.8h-1.8v-11.2h1.8v5c0.3-0.9 1.5-1.3 2.2-1.3 1.9 0 3 1.3 3 3.4z"/>
			<path fill-rule="evenodd" class="s0" d="m43.1 67c0-2.4 1.7-3.9 3.8-3.9 2.1 0 3.9 1.5 3.9 3.9 0 2.3-1.8 3.8-3.9 3.8-2.1 0-3.8-1.5-3.8-3.8zm5.9 0c0-1.3-1-2.2-2.1-2.2-1.1 0-2 0.9-2 2.2 0 1.2 0.9 2.1 2 2.1 1.1 0 2.1-0.9 2.1-2.1z"/>
			<path fill-rule="evenodd" class="s0" d="m52.3 67c0-2.4 1.8-3.9 3.9-3.9 2.1 0 3.9 1.5 3.9 3.9 0 2.3-1.8 3.8-3.9 3.8-2 0-3.9-1.5-3.9-3.8zm6 0c0-1.3-1-2.2-2.1-2.2-1.1 0-2 0.9-2 2.2 0 1.2 0.9 2.1 2 2.1 1.1 0 2.1-0.9 2.1-2.1z"/>
			<path class="s0" d="m62.1 70.6v-11.2h1.8v11.2z"/>
			<path class="s0" d="m65.9 68.4h1.7c0 0.5 0.4 0.9 1.2 0.9 0.7 0 1.2-0.3 1.2-0.8 0-0.4-0.3-0.6-0.9-0.7l-0.9-0.3c-1.7-0.4-2.1-1.3-2.1-2.2 0-1.1 1.1-2.2 2.7-2.2 1.3 0 2.8 0.7 2.7 2.3h-1.7c0-0.5-0.4-0.8-1-0.8-0.5 0-0.9 0.3-0.9 0.8 0 0.4 0.4 0.6 0.8 0.7l1.1 0.3c1.7 0.4 2 1.4 2 2.1 0 1.5-1.5 2.3-3 2.3-1.4 0-2.9-0.9-2.9-2.4z"/>
		</g>
	</g>
</svg>